<?xml version="1.0" encoding="UTF-8"?>
<svg id="uuid-90c9f058-e8ce-4dfb-90e4-448c63b774cd" data-name="Layer 1" xmlns="http://www.w3.org/2000/svg" viewBox="0 0 395.94 301.74">
  <g isolation="isolate">
    <g isolation="isolate">
      <path d="m0,186.48c0-3.01,1.09-6.29,3.14-9.98,1.5-2.73,2.19-4.92,2.19-6.56,0-1.23-.68-2.46-1.91-3.96-2.05-2.6-3.14-5.33-3.14-7.93,0-2.87,1.37-5.33,4.1-7.25,2.6-1.91,5.2-3.01,7.52-3.14.96,0,1.64.27,2.32.82.55.68.82,1.37.82,2.05,0,.96-.41,1.91-1.37,3.14-1.5,2.19-4.24,4.65-8.07,7.52.68,1.37,1.64,2.6,2.73,3.83,1.91,2.19,2.87,4.1,2.87,5.88,0,1.91-.68,4.24-2.19,6.84-1.78,3.83-2.6,6.97-2.6,9.3s1.37,3.55,4.1,3.69c16.54,0,40.33-10.12,71.37-30.21l.55-.14c1.09,0,1.64.55,1.64,1.78l-.68.82c-31.04,20.37-55.23,30.49-72.87,30.49-6.84,0-10.39-2.32-10.53-6.97Zm7.25-33.5c-1.78,1.78-2.6,3.42-2.6,5.06v.27c1.64-1.09,3.14-2.46,4.92-4.24,1.64-1.78,2.46-2.87,2.46-3.55-1.5,0-3.01.82-4.79,2.46Z" fill="#fff"/>
      <path d="m79.3,176.78c-1.78-1.37-2.73-3.42-2.73-6.29s.96-6.15,3.01-9.16c1.91-3.14,4.24-5.06,6.56-5.88,2.05,0,3.14.96,3.14,2.87,0,.55-.14,1.09-.55,1.5-4.79,3.96-7.25,7.79-7.25,11.62,0,1.09.27,2.19.96,3.14.55.96,1.64,1.37,3.01,1.37,2.32,0,4.1-.68,5.47-1.91s2.73-2.73,3.96-4.79c-2.6-1.23-3.96-3.55-3.96-6.97,0-3.01,1.5-4.65,4.65-4.92,2.87,0,4.24,1.78,4.24,5.2,0,1.5-.41,3.14-1.09,4.79,2.73,1.23,5.74,1.91,9.3,1.91,13.95-.41,27.21-1.64,39.79-3.69s21.19-3.83,25.7-5.33c1.23,0,1.78.55,1.78,1.5v.14c0,.82-3.69,2.05-10.94,3.55s-15.86,3.01-26.11,4.38c-10.12,1.37-20.23,2.19-30.21,2.32-3.69,0-7.25-.55-10.53-1.78-2.87,5.61-6.84,8.48-12.03,8.48-2.32,0-4.38-.68-6.15-2.05Zm17.64-14.08c0-1.78-.55-2.6-1.5-2.6-.41,0-.55.68-.68,2.19,0,1.64.55,2.87,1.64,3.69.41-1.23.55-2.32.55-3.28Z" fill="#fff"/>
      <path d="m164.2,193.87c0-10.25,2.87-22.29,8.48-36.09s12.71-27.75,21.46-41.97c8.75-14.08,18.18-27.07,28.16-38.96,15.18-17.64,28.16-27.07,39.24-28.03,2.87,0,5.06.96,6.43,2.73,1.37,1.91,2.05,4.1,2.05,6.56,0,12.3-11.07,30.08-33.09,53.46-19.69,20.64-39.38,37.19-59.2,49.63-1.91,4.65-3.14,7.93-3.83,9.98.41-.41,1.23-1.37,2.32-2.87,4.79-5.88,9.57-8.89,14.08-8.89,3.42,0,5.2,1.37,5.2,4.24,0,3.96-2.32,7.66-7.11,10.8s-9.16,5.06-13.12,5.74c9.43,5.06,20.1,7.66,31.86,7.66,8.07,0,16.54-1.23,25.43-3.69,14.49-4.1,29.12-9.98,44.02-17.64,7.79-4.24,11.89-6.43,12.17-6.43.96,0,1.5.68,1.5,2.19l-5.2,2.6c-8.07,4.65-17.09,9.02-26.8,13.26-19.28,8.34-36.23,12.44-51.13,12.44s-27.48-2.87-36.37-8.48c-.96,4.1-1.37,8.07-1.37,11.76,0,1.64-.82,2.46-2.46,2.46-1.78,0-2.73-.82-2.73-2.46Zm16.13-19.14c3.14-1.5,5.74-3.42,7.93-5.47s3.28-3.83,3.28-5.33c0-1.09-.41-1.64-1.23-1.64-3.42,0-7.38,2.73-11.89,8.34-3.14,3.55-4.92,5.88-5.47,6.97,1.78-.27,4.24-1.23,7.38-2.87Zm40.88-51.27c14.77-13.95,27.07-28.3,36.91-43.07,6.02-9.16,9.02-16.54,9.02-22.29,0-4.24-1.78-6.43-5.47-6.43-5.61,0-13.67,5.61-24.06,16.68s-20.92,24.88-31.72,41.15c-10.8,16.41-19.69,32.13-26.39,47.3,12.99-8.34,26.93-19.41,41.7-33.36Z" fill="#fff"/>
      <path d="m313.91,170.08c0-3.01,0-4.65.14-4.79-3.14,3.14-6.56,5.88-10.12,8.48s-7.11,3.96-10.8,3.96c-6.15,0-9.43-1.64-10.12-4.79l-.14-2.19c0-4.51,2.46-9.98,7.52-16.41.55-.96,1.5-1.5,3.01-1.5,2.32,0,3.55.82,3.55,2.32l-.41.68c-4.79,7.52-7.25,12.85-7.25,16.27,0,1.78,1.23,2.73,3.83,2.73s5.33-1.09,8.48-3.14c5.74-3.69,10.94-8.34,15.72-14.22l.96-1.23c.55-.96,1.09-1.64,1.64-2.32.55-.55,1.91-.82,3.96-.82,1.64.41,2.46,1.23,2.46,2.19l-.41.82c-3.01,4.51-4.51,9.3-4.51,14.49,0,2.6.96,4.92,2.73,6.97s4.1,3.14,7.25,3.14c8.34,0,21.19-3.42,38.55-10.12l24.47-10.39c.96,0,1.5.41,1.5,1.37,0,.82-.27,1.23-.68,1.23-.14.14-2.6,1.23-7.25,3.28-26.11,11.62-44.98,17.36-56.6,17.36s-17.09-4.51-17.5-13.4Z" fill="#fff"/>
    </g>
  </g>
</svg>