<?xml version="1.0" encoding="UTF-8"?>
<svg id="Clock" xmlns="http://www.w3.org/2000/svg" viewBox="0 0 499.19 499.2">
  <path d="m0,264.13C0,254.39,0,244.64,0,234.89c.3-1.57.61-3.15.89-4.72,2.96-16.56,4.11-33.7,9.17-49.6C41.04,83.34,106.89,24.28,207.02,3.84,216.19,1.97,225.59,1.25,234.89,0c9.75,0,19.49,0,29.24,0,1.42.29,2.82.72,4.25.84,54.68,4.31,103.48,23.65,144.19,60.32,73.23,65.96,101.04,148.48,79.54,244.53-31.11,138.95-171.66,222.99-308.55,183.93C84.22,461.27,24.62,393.42,3.84,292.01,1.96,282.84,1.25,273.43,0,264.13Zm250.05,121.87c22.81-.06,44.39-5.21,64.66-15.68,60.14-31.07,88.88-100.91,67.17-163.17-28.23-80.96-123.45-117.54-198.76-76.35-51.14,27.97-79.59,83.96-70.6,138.9,11.06,67.63,68.63,116.3,137.53,116.3Z" fill="#171717"/>
  <path d="m250.05,386c-68.9,0-126.47-48.67-137.53-116.3-8.99-54.95,19.47-110.93,70.6-138.9,75.31-41.19,170.53-4.62,198.76,76.35,21.71,62.26-7.03,132.1-67.17,163.17-20.28,10.47-41.86,15.62-64.66,15.68Zm.29-251.29c-7.73.9-15.53,1.38-23.17,2.75-62.96,11.29-105.36,73.91-92.04,135.71,14.46,67.11,85.38,107.47,151.15,86.02,55.75-18.19,88.8-71.88,79.25-128.77-9.1-54.24-58.29-94.89-115.19-95.71Z" fill="#fff"/>
  <path d="m250.34,134.71c56.91.82,106.09,41.47,115.19,95.71,9.55,56.89-23.5,110.59-79.25,128.77-65.76,21.45-136.68-18.91-151.15-86.02-13.32-61.81,29.08-124.42,92.04-135.71,7.64-1.37,15.44-1.86,23.17-2.75Zm10.55,81.08c0-8.93.1-17.86-.03-26.78-.11-7.29-4.36-11.8-10.79-11.83-6.47-.03-10.87,4.45-10.91,11.7-.11,20.13-.02,40.26-.05,60.39,0,4.55,1.68,8.12,5.4,10.83,13.76,10.04,27.41,20.25,41.28,30.14,2.21,1.58,5.38,2.59,8.08,2.55,4.77-.08,8.17-2.89,9.53-7.66,1.39-4.86-.5-8.61-4.34-11.46-11.6-8.6-23.33-17.03-34.8-25.8-1.71-1.31-3.12-4.1-3.21-6.27-.36-8.59-.15-17.2-.15-25.8Z" fill="#171717"/>
  <path d="m260.89,215.79c0,8.6-.21,17.22.15,25.8.09,2.17,1.49,4.96,3.21,6.27,11.47,8.78,23.2,17.2,34.8,25.8,3.83,2.85,5.73,6.6,4.34,11.46-1.36,4.77-4.75,7.58-9.53,7.66-2.7.05-5.86-.97-8.08-2.55-13.87-9.89-27.52-20.1-41.28-30.14-3.73-2.72-5.41-6.29-5.4-10.83.03-20.13-.06-40.26.05-60.39.04-7.25,4.44-11.73,10.91-11.7,6.44.03,10.69,4.54,10.79,11.83.13,8.93.03,17.86.03,26.78Z" fill="#fff"/>
</svg>