<?xml version="1.0" encoding="UTF-8"?>
<svg id="Plane" xmlns="http://www.w3.org/2000/svg" viewBox="0 0 499.19 499.2">
  <path d="m0,264.13C0,254.39,0,244.64,0,234.89c.3-1.57.61-3.15.89-4.72,2.96-16.56,4.11-33.7,9.17-49.6C41.04,83.34,106.89,24.28,207.02,3.84,216.19,1.97,225.59,1.25,234.89,0c9.75,0,19.49,0,29.24,0,1.42.29,2.82.72,4.25.84,54.68,4.31,103.48,23.65,144.19,60.32,73.23,65.96,101.04,148.48,79.54,244.53-31.11,138.95-171.66,222.99-308.55,183.93C84.22,461.27,24.62,393.42,3.84,292.01,1.96,282.84,1.25,273.43,0,264.13Zm261.79,5.73c.68,1.44,1.26,2.42,1.63,3.47,6.42,18.17,12.82,36.34,19.21,54.52,3.01,8.56,5.82,17.18,9.03,25.66,2.37,6.25,8.19,9.91,12.37,6.87,6.15-4.48,11.4-10.31,16.47-16.07,1.38-1.57,1.09-4.96.94-7.48-.37-6.14-1.16-12.25-1.68-18.39-2.45-29.39-4.93-58.77-7.17-88.18-.15-1.98,1-4.72,2.49-6.06,9.54-8.57,19.47-16.71,29.01-25.27,9-8.08,16.93-17.08,20.66-28.94,2.84-9.04,1.47-17.22-5.31-24.27-6.57-6.83-14.69-8.67-23.18-5.74-7.38,2.54-15.1,5.66-21.05,10.5-12.68,10.33-24.24,22.03-36.47,32.95-1.64,1.46-4.63,2.59-6.7,2.23-31.56-5.59-63.05-11.56-94.59-17.21-19.76-3.54-16.47-5.53-31.98,8.52-7,6.34-6.37,13.6,2.21,17.72,18.11,8.68,36.37,17.04,54.59,25.5,8.32,3.86,16.68,7.66,25.42,11.67-1.07,1.23-1.62,1.99-2.3,2.62-11.02,10.32-22.12,20.57-33.04,31-2.15,2.05-4.16,2.43-6.93,1.87-8.57-1.72-17.18-3.2-25.78-4.77-6.17-1.13-11.55.4-16.16,4.68-2.02,1.88-4.14,3.65-6.17,5.52-5.72,5.25-5.14,12.43,1.35,16.68,9.48,6.22,18.87,12.59,28.51,18.55,6,3.71,10.34,8.53,13.43,14.86,5.06,10.33,10.5,20.46,15.84,30.65,2.79,5.32,9.96,7.45,14.53,3.92,3.96-3.05,7.85-6.44,10.9-10.35,1.92-2.46,3.14-6.19,3.08-9.32-.17-8.9-.67-17.86-1.99-26.65-.84-5.6.89-8.89,5.06-12.31,11.39-9.34,22.4-19.14,33.78-28.95Z" fill="#171717"/>
  <path d="m261.79,269.86c-11.38,9.81-22.39,19.61-33.78,28.95-4.18,3.43-5.91,6.71-5.06,12.31,1.32,8.79,1.83,17.75,1.99,26.65.06,3.13-1.16,6.86-3.08,9.32-3.05,3.92-6.94,7.3-10.9,10.35-4.57,3.52-11.74,1.4-14.53-3.92-5.34-10.19-10.79-20.32-15.84-30.65-3.1-6.33-7.43-11.15-13.43-14.86-9.64-5.96-19.03-12.33-28.51-18.55-6.49-4.25-7.06-11.44-1.35-16.68,2.03-1.87,4.15-3.64,6.17-5.52,4.61-4.29,9.99-5.81,16.16-4.68,8.6,1.57,17.21,3.05,25.78,4.77,2.77.56,4.78.18,6.93-1.87,10.92-10.43,22.02-20.67,33.04-31,.67-.63,1.23-1.39,2.3-2.62-8.74-4.01-17.09-7.8-25.42-11.67-18.21-8.46-36.48-16.82-54.59-25.5-8.59-4.12-9.21-11.38-2.21-17.72,15.51-14.05,12.22-12.05,31.98-8.52,31.55,5.65,63.04,11.62,94.59,17.21,2.07.37,5.06-.76,6.7-2.23,12.22-10.91,23.78-22.61,36.47-32.95,5.95-4.85,13.67-7.96,21.05-10.5,8.49-2.93,16.61-1.09,23.18,5.74,6.78,7.05,8.15,15.24,5.31,24.27-3.73,11.86-11.66,20.86-20.66,28.94-9.55,8.56-19.48,16.7-29.01,25.27-1.49,1.34-2.64,4.08-2.49,6.06,2.24,29.4,4.72,58.79,7.17,88.18.51,6.13,1.31,12.25,1.68,18.39.15,2.52.44,5.91-.94,7.48-5.06,5.76-10.32,11.59-16.47,16.07-4.17,3.04-10-.61-12.37-6.87-3.21-8.48-6.03-17.1-9.03-25.66-6.39-18.18-12.79-36.35-19.21-54.52-.37-1.05-.95-2.03-1.63-3.47Z" fill="#fff"/>
</svg>