<?xml version="1.0" encoding="UTF-8"?>
<svg id="Dollar" xmlns="http://www.w3.org/2000/svg" viewBox="0 0 499.19 499.2">
  <path d="m0,264.13C0,254.39,0,244.64,0,234.89c.3-1.57.61-3.15.89-4.72,2.96-16.56,4.11-33.7,9.17-49.6C41.04,83.34,106.89,24.28,207.02,3.84,216.19,1.97,225.59,1.25,234.89,0c9.75,0,19.49,0,29.24,0,1.42.29,2.82.72,4.25.84,54.68,4.31,103.48,23.65,144.19,60.32,73.23,65.96,101.04,148.48,79.54,244.53-31.11,138.95-171.66,222.99-308.55,183.93C84.22,461.27,24.62,393.42,3.84,292.01,1.96,282.84,1.25,273.43,0,264.13Zm266.96-120.31c0-8.76-.01-17.03,0-25.3.01-4.41-2.02-6.57-6.55-6.49-6.01.11-12.02.08-18.03.01-4.48-.05-6.55,2.09-6.52,6.54.05,6.5-.39,13.03.14,19.48.42,5.06-1.32,6.79-6.16,8.04-20.2,5.19-36.26,16.3-44.54,35.96-9.19,21.81-4.76,49.67,22.21,65.74,14.39,8.58,30.47,14.29,45.68,21.53,7.3,3.47,14.95,6.67,21.38,11.43,12.18,9,11.19,26.18-1.93,33.78-5.55,3.22-12.32,5.51-18.68,5.92-19.15,1.23-35.34-6.71-49.89-18.52-5.44-4.42-7.08-4.21-11.42,1.4-4.08,5.26-8.15,10.53-12.21,15.81-3.88,5.04-3.8,6.74,1.03,11.03,8.56,7.61,17.96,14.01,28.77,17.91,8.32,3.01,16.89,5.31,25.64,8.01,0,7.89-.05,16.01.02,24.12.04,5.06,1.68,6.66,6.75,6.72,5.85.07,11.7.07,17.54,0,5.12-.06,6.67-1.57,6.74-6.7.09-6.82.19-13.65-.05-20.46-.12-3.32.83-4.52,4.21-5.54,7.25-2.18,14.75-4.41,21.18-8.24,19.61-11.68,30.05-29.25,30.07-52.27.02-22.94-12.63-37.98-32.16-47.65-12.19-6.03-25.14-10.49-37.51-16.17-8.2-3.77-16.59-7.63-23.79-12.94-12.13-8.95-10.71-24.79,2.11-32.85,9.61-6.04,20.18-6.85,31-5.24,12.32,1.83,23.09,7.36,32.96,14.82,4.5,3.41,7,2.89,9.8-1.98,3.8-6.61,7.41-13.33,11.22-19.93,1.76-3.05,1.4-5.58-1.29-7.73-2.66-2.12-5.34-4.24-8.15-6.16-11.77-8.05-25.12-11.81-39.57-14.09Z" fill="#171717"/>
  <path d="m266.96,143.82c14.45,2.28,27.8,6.04,39.57,14.09,2.81,1.92,5.49,4.04,8.15,6.16,2.7,2.15,3.05,4.69,1.29,7.73-3.81,6.6-7.42,13.32-11.22,19.93-2.8,4.87-5.3,5.39-9.8,1.98-9.87-7.47-20.64-12.99-32.96-14.82-10.83-1.61-21.39-.8-31,5.24-12.82,8.05-14.24,23.9-2.11,32.85,7.2,5.31,15.59,9.17,23.79,12.94,12.37,5.69,25.33,10.14,37.51,16.17,19.53,9.66,32.18,24.71,32.16,47.65-.02,23.02-10.46,40.6-30.07,52.27-6.43,3.83-13.93,6.06-21.18,8.24-3.38,1.02-4.33,2.22-4.21,5.54.25,6.81.14,13.64.05,20.46-.06,5.14-1.62,6.65-6.74,6.7-5.85.06-11.7.07-17.54,0-5.07-.06-6.7-1.66-6.75-6.72-.07-8.11-.02-16.23-.02-24.12-8.75-2.7-17.32-5-25.64-8.01-10.81-3.91-20.21-10.3-28.77-17.91-4.82-4.29-4.9-5.99-1.03-11.03,4.06-5.28,8.13-10.54,12.21-15.81,4.34-5.61,5.98-5.81,11.42-1.4,14.55,11.81,30.74,19.75,49.89,18.52,6.36-.41,13.13-2.7,18.68-5.92,13.12-7.6,14.11-24.77,1.93-33.78-6.43-4.75-14.08-7.95-21.38-11.43-15.21-7.24-31.29-12.95-45.68-21.53-26.97-16.08-31.4-43.93-22.21-65.74,8.28-19.66,24.34-30.77,44.54-35.96,4.84-1.24,6.58-2.98,6.16-8.04-.53-6.45-.09-12.98-.14-19.48-.04-4.44,2.03-6.59,6.52-6.54,6.01.07,12.02.1,18.03-.01,4.53-.09,6.56,2.08,6.55,6.49-.02,8.27,0,16.54,0,25.3Z" fill="#fff"/>
</svg>